<svg id="contents" xmlns="http://www.w3.org/2000/svg" viewBox="0 0 334.69 564.38">
    <g id="Lampadina">
        <g id="Raggi">
            <path d="M111.25,248,72.81,281.39c-7,5.65-15.1-4.88-7.86-10.19l42.18-28.64a3.45,3.45,0,0,1,4.2,5.45Z" transform="translate(-26.75 -26.55)" style="fill:var(--Color_Main, orange)"/>
            <path d="M88.89,155.45l-50-9.44c-8.77-2-5.58-14.83,3.18-12.47l48.53,15.23a3.45,3.45,0,0,1-1.63,6.69Z" transform="translate(-26.75 -26.55)" style="fill:var(--Color_Main, orange)"/>
            <path d="M145.83,81.42,121.42,36.74A6.51,6.51,0,1,1,133,31.24l19.06,47.2a3.45,3.45,0,0,1-6.22,2.94Z" transform="translate(-26.75 -26.55)" style="fill:var(--Color_Main, orange)"/>
            <path d="M284.29,242.56,326.4,271.2c7.24,5.36-.82,15.84-7.85,10.19L280.1,248a3.45,3.45,0,0,1,4.19-5.45Z" transform="translate(-26.75 -26.55)" style="fill:var(--Color_Main, orange)"/>
            <path d="M300.8,148.77l48.59-15.23c8.67-2.37,11.91,10.45,3.13,12.47l-50.1,9.44a3.45,3.45,0,0,1-1.62-6.69Z" transform="translate(-26.75 -26.55)" style="fill:var(--Color_Main, orange)"/>
            <path d="M239.31,78.47l19.06-47.2C262.05,23.14,274,28.7,270,36.78L245.46,81.42a3.45,3.45,0,0,1-6.21-3Z" transform="translate(-26.75 -26.55)" style="fill:var(--Color_Main, orange)"/>
        </g>
        <g id="Bulbo">
            <path d="M195.68,107.13a71.49,71.49,0,0,0-71.74,71.24c0,.23,0,.45,0,.67,0,11.74,2.08,17.14,2.08,17.14,6.51,22.69,18.11,26.9,23.09,39.4,7.24,18.23,7.78,36.76,8.4,42.31.75,6.72,2.29,6.66,38.16,6.66s37.43,0,38.16-6.66c.61-5.48,1.16-24,8.4-42.31,4.88-12.5,16.59-16.71,23.08-39.4,0,0,2.08-5.4,2.08-17.14a71.47,71.47,0,0,0-71-71.91h-.69" transform="translate(-26.75 -26.55)" style="fill:none;stroke:var(--Color_Main, orange);stroke-miterlimit:10;stroke-width:9.469650268554688px"/>
            <path d="M142.94,163.58a55,55,0,0,1,38.13-37.83" transform="translate(-26.75 -26.55)" style="fill:none;stroke:var(--Color_Main, orange);stroke-linecap:round;stroke-miterlimit:10;stroke-width:9.469650268554688px"/>
            <path d="M161.12,298.53c16.58,1.15,30.09.89,34.45.89h.21c4.38,0,17.9.26,34.45-.89" transform="translate(-26.75 -26.55)" style="fill:none;stroke:var(--Color_Main, orange);stroke-linecap:round;stroke-miterlimit:10;stroke-width:11.83706283569336px"/>
            <path d="M166.29,315.23h58.77" transform="translate(-26.75 -26.55)" style="fill:none;stroke:var(--Color_Main, orange);stroke-linecap:round;stroke-miterlimit:10;stroke-width:11.83706283569336px"/>
            <path d="M195.68,324.89c-23.84,0-25.84-.37-25.84,2.22,0,2.1,4.46,5.89,7.92,7.77,5.94,3.26,14.65,3.08,17.81,3.08h.21c3.16,0,11.86.2,17.9-3.08,3.45-1.88,7.93-5.67,7.93-7.77C221.52,324.52,219.52,324.88,195.68,324.89Z" transform="translate(-26.75 -26.55)" style="fill:var(--Color_Main, orange)"/>
        </g>
    </g>
    <g id="Scatola">
        <path d="M79.71,434.38l118.42,42.56-45.82,48.45a3.33,3.33,0,0,1-3.56.85L30.27,483.92a1.53,1.53,0,0,1-.53-2.56l50-47L190.65,387.7l118.8,46.15,49.16,48a1.11,1.11,0,0,1-.37,1.82L311.83,502v40l-112,46.28L77.62,542l-.78-41.41" transform="translate(-26.75 -26.55)" style="fill:none;stroke:#000;stroke-miterlimit:10;stroke-width:5px"/>
        <line x1="171.37" y1="450.38" x2="172.07" y2="561.31" style="fill:none;stroke:#000;stroke-miterlimit:10;stroke-width:5px"/>
        <line x1="171.37" y1="450.38" x2="283" y2="407.48" style="fill:none;stroke:#000;stroke-miterlimit:10;stroke-width:5px"/>
        <path d="M199.81,476.29l42,48.54a3.49,3.49,0,0,0,3.82,1L311.83,502" transform="translate(-26.75 -26.55)" style="fill:none;stroke:#000;stroke-miterlimit:10;stroke-width:5px"/>
        <line x1="163.89" y1="361.15" x2="164.25" y2="447.51" style="fill:none;stroke:#000;stroke-miterlimit:10;stroke-width:4px"/>
    </g>
</svg>
