<svg id="gear-bulb" xmlns="http://www.w3.org/2000/svg" viewBox="0 0 199.11 190.95">
    <g id="Bulbo">
        <path d="M113.41,66.31A43.93,43.93,0,0,0,69.33,110.5c0,7.21,1.28,10.53,1.28,10.53,4,13.94,11.13,16.53,14.19,24.21,4.45,11.2,4.78,22.59,5.16,26,.46,4.13,1.41,4.09,23.45,4.09s23,0,23.45-4.09c.37-3.37.71-14.76,5.16-26,3-7.68,10.19-10.27,14.18-24.21,0,0,1.28-3.32,1.28-10.53a43.92,43.92,0,0,0-44.07-44.19" transform="translate(-13.85 -17.21)" style="fill:none;stroke:var(--Color_Main, orange);stroke-miterlimit:10;stroke-width:5.5px"/>
        <path d="M81,101a33.83,33.83,0,0,1,23.43-23.25" transform="translate(-13.85 -17.21)" style="fill:none;stroke:var(--Color_Main, orange);stroke-linecap:round;stroke-miterlimit:10;stroke-width:5.5px"/>
        <path d="M92.17,183.92c10.19.71,18.49.55,21.17.55h.13c2.69,0,11,.16,21.17-.55" transform="translate(-13.85 -17.21)" style="fill:none;stroke:var(--Color_Main, orange);stroke-linecap:round;stroke-miterlimit:10;stroke-width:7.5px"/>
        <path d="M95.35,194.18h36.11" transform="translate(-13.85 -17.21)" style="fill:none;stroke:var(--Color_Main, orange);stroke-linecap:round;stroke-miterlimit:10;stroke-width:7.5px"/>
        <path d="M113.41,200.12c-14.65,0-15.88-.23-15.88,1.36,0,1.29,2.74,3.62,4.87,4.78,3.65,2,9,1.89,10.94,1.89h.13c1.94,0,7.29.12,11-1.89,2.12-1.16,4.87-3.49,4.87-4.78C129.29,199.89,128.06,200.11,113.41,200.12Z" transform="translate(-13.85 -17.21)" style="fill:var(--Color_Main, orange)"/>
    </g>
    <g id="Ingranaggi">
        <g id="Grande">
            <path d="M145,99.51c-2.29,1.35-4.61,2.86-7.28,3.18l-1.68-6a10.05,10.05,0,0,1,3.83-.91,28.49,28.49,0,0,1,4-.18L145,99.51Z" transform="translate(-13.85 -17.21)" style="fill:var(--Color_Main, orange)"/>
            <path d="M142.73,113.35c-2.62-.44-5.38-.78-7.62-2.24l2.54-5.65a10.31,10.31,0,0,1,3.52,1.76,28.78,28.78,0,0,1,3.21,2.46l-1.65,3.67Z" transform="translate(-13.85 -17.21)" style="fill:var(--Color_Main, orange)"/>
            <path d="M132.13,122.52c-1.73-2-3.63-4-4.41-6.62l5.59-2.69a10.4,10.4,0,0,1,1.56,3.61,28.29,28.29,0,0,1,.87,4l-3.61,1.75Z" transform="translate(-13.85 -17.21)" style="fill:var(--Color_Main, orange)"/>
            <path d="M118.11,122.72c0-2.66-.18-5.43.88-7.9l6,1.53a10.34,10.34,0,0,1-1.13,3.77,29.92,29.92,0,0,1-1.87,3.59l-3.89-1Z" transform="translate(-13.85 -17.21)" style="fill:var(--Color_Main, orange)"/>
            <path d="M107.23,113.87c1.7-2.06,3.36-4.27,5.76-5.49l3.62,5a10.24,10.24,0,0,1-3.29,2.17,28.8,28.8,0,0,1-3.74,1.55l-2.35-3.26Z" transform="translate(-13.85 -17.21)" style="fill:var(--Color_Main, orange)"/>
            <path d="M104.6,100.1c2.62-.49,5.32-1.11,7.93-.51l-.46,6.19a10.4,10.4,0,0,1-3.91-.46,29.69,29.69,0,0,1-3.86-1.22l.3-4Z" transform="translate(-13.85 -17.21)" style="fill:var(--Color_Main, orange)"/>
            <path d="M111.43,87.85c2.32,1.31,4.79,2.57,6.4,4.72L113.5,97a10.27,10.27,0,0,1-2.7-2.87,28.21,28.21,0,0,1-2.17-3.41l2.8-2.88Z" transform="translate(-13.85 -17.21)" style="fill:var(--Color_Main, orange)"/>
            <path d="M124.53,82.87c.94,2.49,2,5,1.88,7.72l-6.17.62a10.38,10.38,0,0,1-.23-3.93,29.39,29.39,0,0,1,.53-4l4-.4Z" transform="translate(-13.85 -17.21)" style="fill:var(--Color_Main, orange)"/>
            <path d="M137.78,87.47c-.89,2.51-1.7,5.16-3.53,7.12l-5.13-3.49a10.38,10.38,0,0,1,2.36-3.16,28.81,28.81,0,0,1,3-2.73l3.32,2.26Z" transform="translate(-13.85 -17.21)" style="fill:var(--Color_Main, orange)"/>
            <circle cx="110.96" cy="86.21" r="12.61" style="fill:none;stroke:var(--Color_Main, orange);stroke-linecap:round;stroke-miterlimit:10;stroke-width:5.5px"/>
        </g>
        <g id="Piccolo">
            <circle cx="83.71" cy="106.39" r="7.57" style="fill:none;stroke:var(--Color_Main, orange);stroke-miterlimit:10;stroke-width:4px"/>
            <path d="M105,113.44a14.33,14.33,0,0,1-1.6,4.72L98.9,115.8a14.42,14.42,0,0,1,3-4l3.14,1.64Z" transform="translate(-13.85 -17.21)" style="fill:var(--Color_Main, orange)"/>
            <path d="M110.25,123.2a14.58,14.58,0,0,1-4.69,1.68l-1-5a14.53,14.53,0,0,1,5-.18l.68,3.49Z" transform="translate(-13.85 -17.21)" style="fill:var(--Color_Main, orange)"/>
            <path d="M105.87,133.37a14.63,14.63,0,0,1-4.24-2.62l3.31-3.87a14.61,14.61,0,0,1,3.24,3.79l-2.31,2.7Z" transform="translate(-13.85 -17.21)" style="fill:var(--Color_Main, orange)"/>
            <path d="M95.19,136.27a14.38,14.38,0,0,1-.59-4.94l5.08.18a14.26,14.26,0,0,1-1,4.89l-3.54-.13Z" transform="translate(-13.85 -17.21)" style="fill:var(--Color_Main, orange)"/>
            <path d="M86.26,129.72a14.4,14.4,0,0,1,3.51-3.54l3,4.09a14.57,14.57,0,0,1-4.42,2.31l-2.11-2.86Z" transform="translate(-13.85 -17.21)" style="fill:var(--Color_Main, orange)"/>
            <path d="M85.83,118.66a14.24,14.24,0,0,1,5,.54l-1.33,4.91a14.28,14.28,0,0,1-4.55-2l.92-3.42Z" transform="translate(-13.85 -17.21)" style="fill:var(--Color_Main, orange)"/>
            <path d="M94.23,111.43a14.74,14.74,0,0,1,2.66,4.22l-4.67,2A14.42,14.42,0,0,1,91,112.85l3.26-1.42Z" transform="translate(-13.85 -17.21)" style="fill:var(--Color_Main, orange)"/>
        </g>
    </g>
    <g id="Raggi">
        <path d="M61.53,152.88,37.91,173.39c-4.31,3.47-9.28-3-4.83-6.26L59,149.53a2.12,2.12,0,0,1,2.58,3.35Z" transform="translate(-13.85 -17.21)" style="fill:var(--Color_Main, orange)"/>
        <path d="M47.79,96,17.05,90.2C11.66,89,13.62,81.09,19,82.54L48.82,91.9a2.12,2.12,0,0,1-1,4.11Z" transform="translate(-13.85 -17.21)" style="fill:var(--Color_Main, orange)"/>
        <path d="M82.78,50.51l-15-27.45a4,4,0,1,1,7.14-3.38l11.71,29a2.12,2.12,0,0,1-3.82,1.81Z" transform="translate(-13.85 -17.21)" style="fill:var(--Color_Main, orange)"/>
        <path d="M167.86,149.53l25.87,17.6c4.45,3.29-.5,9.73-4.82,6.26l-23.63-20.51a2.12,2.12,0,0,1,2.58-3.35Z" transform="translate(-13.85 -17.21)" style="fill:var(--Color_Main, orange)"/>
        <path d="M178,91.9l29.86-9.36c5.33-1.46,7.32,6.42,1.92,7.66L179,96a2.12,2.12,0,0,1-1-4.11Z" transform="translate(-13.85 -17.21)" style="fill:var(--Color_Main, orange)"/>
        <path d="M140.22,48.7l11.71-29c2.26-5,9.61-1.58,7.14,3.38L144,50.51a2.12,2.12,0,0,1-3.82-1.81Z" transform="translate(-13.85 -17.21)" style="fill:var(--Color_Main, orange)"/>
    </g>
</svg>
