<svg id="to-the-adventure" xmlns="http://www.w3.org/2000/svg" viewBox="0 0 540.36 310.69">
    <g id="Black">
        <path d="M126.17,272.34l-2.59-2.74a2.86,2.86,0,0,1-.78-2v-.36a2.85,2.85,0,0,0-2.91-2.85l-12.06.24a2.85,2.85,0,0,0-2.79,2.85v5a2.88,2.88,0,0,0,.86,2l2.47,2.4a2.88,2.88,0,0,0,2,.8h5.78a2.85,2.85,0,0,1,2.85,2.86V290a2.86,2.86,0,0,0,.78,2l7,7.47a2.83,2.83,0,0,0,2.08.9h29.38a2.85,2.85,0,0,1,1.87.7l12.79,11.09a2.83,2.83,0,0,0,1.87.7h9.56a2.86,2.86,0,0,1,2.85,2.86v11a2.84,2.84,0,0,1-.71,1.89l-10.83,12.3a2.84,2.84,0,0,0-.71,1.88v8.91a2.87,2.87,0,0,1-.8,2l-24.81,25.66a2.86,2.86,0,0,0-.8,2v10.32a2.84,2.84,0,0,0,.73,1.91l3.57,4a2.85,2.85,0,0,1-2.12,4.76H140.64a2.83,2.83,0,0,1-2-.84l-10.83-10.89a2.87,2.87,0,0,1-.83-2V350.86a2.87,2.87,0,0,0-.81-2l-18.28-18.67a2.87,2.87,0,0,1-.81-2V313.7a2.87,2.87,0,0,1,.9-2.08l6-5.6a2.89,2.89,0,0,0,.9-2.09v-2.26a2.84,2.84,0,0,0-.73-1.91l-4.6-5.12a2.81,2.81,0,0,1-.74-1.91V289.6a2.84,2.84,0,0,0-2.74-2.85l-4.23-.17a2.81,2.81,0,0,1-2-1L70,251.26a2.85,2.85,0,0,1-.7-1.87V238.55a2.85,2.85,0,0,1,.65-1.81l4.89-6A2.85,2.85,0,0,0,75.5,229v-6.71a2.86,2.86,0,0,0-2.86-2.85H45.41a2.9,2.9,0,0,1-2-.8l-1.78-1.73a2.85,2.85,0,0,1-.88-2V204.28a2.85,2.85,0,0,1,.68-1.85l7.59-9a2.85,2.85,0,0,1,2.18-1h81.84a2.84,2.84,0,0,0,1.9-.73l6.07-5.45a2.85,2.85,0,0,1,3.91.09l4.34,4.27a2.86,2.86,0,0,1,0,4.09l-13.17,12.74a2.85,2.85,0,0,0,0,4.12l9.06,8.62c1.83,1.71,6,.79,6-1.78l-.18-8.67a2.86,2.86,0,0,1,2.86-2.91h17.83a2.85,2.85,0,0,1,2,.83l6.06,6.06a2.86,2.86,0,0,1,.84,2v12.86a2.86,2.86,0,0,1-2.85,2.85H166.45a2.86,2.86,0,0,0-2.85,2.86V240a2.86,2.86,0,0,1-2.85,2.85h-6.93a2.88,2.88,0,0,0-1.95.76l-20.19,18.73a2.87,2.87,0,0,0-.91,2.1v5.78a2.82,2.82,0,0,1-3.94,2.64,2.56,2.56,0,0,1-.66-.47" transform="translate(-10.67 -131.09)" style="fill:none;stroke:#1d1d1b;stroke-linejoin:round;stroke-width:3px"/>
        <path d="M168.83,179.08a2.86,2.86,0,0,1,2.86,2.86v3.69a2.85,2.85,0,0,1-4.83,2.06L163,184a2.86,2.86,0,0,1,2-4.92h3.84" transform="translate(-10.67 -131.09)" style="fill:none;stroke:#1d1d1b;stroke-linejoin:round;stroke-width:3px"/>
        <path d="M189.35,164.14h31.07a2.85,2.85,0,0,1,2.85,2.85v27.19a2.84,2.84,0,0,1-.85,2l-21.81,21.46a2.85,2.85,0,0,1-4.85-2v-9.13a2.86,2.86,0,0,0-.8-2l-16.72-17.33a2.82,2.82,0,0,1-.8-2v-11A2.86,2.86,0,0,1,178.5,172l9.06-7.28a2.88,2.88,0,0,1,1.79-.62" transform="translate(-10.67 -131.09)" style="fill:none;stroke:#1d1d1b;stroke-linejoin:round;stroke-width:3px"/>
        <path d="M255,223.29a2.24,2.24,0,0,1-2.28,2.26l-4.18-.08a2.24,2.24,0,0,1-1.75-3.6l4.14-5.44a2.24,2.24,0,0,1,4,1.34l0,5.52" transform="translate(-10.67 -131.09)" style="fill:none;stroke:#1d1d1b;stroke-linejoin:round;stroke-width:3px"/>
        <path d="M241.27,205.25c-2.14,0-3.8,2.26-3.72,5.08s1.7,4.91,3.84,4.83,3.69-2.26,3.57-4.95-1.66-5.08-3.69-5-3.8,2.26-3.72,5.08" transform="translate(-10.67 -131.09)" style="fill:none;stroke:#1d1d1b;stroke-linejoin:round;stroke-width:3px"/>
        <path d="M282,163.1a6,6,0,0,0-5.82,5.87A5.71,5.71,0,0,0,282,174.8a5.78,5.78,0,0,0,5.83-5.83A6,6,0,0,0,282,163.1a6,6,0,0,0-5.82,5.87" transform="translate(-10.67 -131.09)" style="fill:none;stroke:#1d1d1b;stroke-linejoin:round;stroke-width:3px"/>
        <path d="M330.84,367.08a5.1,5.1,0,0,0,5.1,5.1h.16a5.09,5.09,0,0,0,5.09-5.1V353a5.09,5.09,0,0,0-5.09-5.1h-.16a5.1,5.1,0,0,0-5.1,5.1v14.11" transform="translate(-10.67 -131.09)" style="fill:none;stroke:#1d1d1b;stroke-linejoin:round;stroke-width:3px"/>
        <path d="M418.28,329.7a2.84,2.84,0,0,1,0,4L415.09,337a2.85,2.85,0,0,1-4,.05l-14.55-14a2.83,2.83,0,0,1-.06-4l3.31-3.36a2.83,2.83,0,0,1,4,0l14.48,14.11" transform="translate(-10.67 -131.09)" style="fill:none;stroke:#1d1d1b;stroke-linejoin:round;stroke-width:3px"/>
        <path d="M491.93,409.24a5.09,5.09,0,0,0-.05,7.21l0,0a5.1,5.1,0,0,0,7.21,0l17.53-17.37a5.09,5.09,0,0,0,.07-7.17h0a5.1,5.1,0,0,0-7.23-.07l-17.57,17.32" transform="translate(-10.67 -131.09)" style="fill:none;stroke:#1d1d1b;stroke-linejoin:round;stroke-width:3px"/>
        <path d="M441.66,320.65a2.84,2.84,0,0,1-2.83,2.84H427.6a2.84,2.84,0,0,1-2.1-4.74l11.22-12.4a2.83,2.83,0,0,1,4.94,1.9v12.4" transform="translate(-10.67 -131.09)" style="fill:none;stroke:#1d1d1b;stroke-linejoin:round;stroke-width:3px"/>
        <path d="M451.89,293.75a1.81,1.81,0,0,0,.53,1.28l3.91,3.91a1.83,1.83,0,0,0,1.26.53l5,0a1.8,1.8,0,0,0,1.82-1.68l.07-1a1.83,1.83,0,0,0-.47-1.34L455,285.7a1.78,1.78,0,0,0-1.42-.59h0a1.81,1.81,0,0,0-1.73,1.81v6.83" transform="translate(-10.67 -131.09)" style="fill:none;stroke:#1d1d1b;stroke-linejoin:round;stroke-width:3px"/>
        <path d="M407.3,366.74l.16,21.05a2.83,2.83,0,0,0,3.83,2.63l19.8-7.4a2.84,2.84,0,0,1,3.73,1.92l.55,2.05a2.83,2.83,0,0,0,2.81,2.1l6.34-.15a2.83,2.83,0,0,1,1.89.66l1,.85a2.84,2.84,0,0,0,3.44.16l4.83-3.33a2.85,2.85,0,0,1,3.36.1l10.86,8.49a2.84,2.84,0,0,0,3.78-.26l4.29-4.42a2.79,2.79,0,0,0,.8-1.95L479,365.1a2.9,2.9,0,0,0-.67-1.85l-7.21-8.55a2.82,2.82,0,0,1-.67-1.75l-.17-5.83a2.85,2.85,0,0,0-.86-1.95L467,342.88a2.83,2.83,0,0,0-4.81,2l-.05,2.27a2.83,2.83,0,0,1-2.71,2.77l-4,.18a2.83,2.83,0,0,1-2.19-.88l-2.33-2.48a2.83,2.83,0,0,1-.77-1.76h0a2.84,2.84,0,0,0-4.82-1.84l-6.48,6.35a2.81,2.81,0,0,1-1.93.81l-13,.28a2.79,2.79,0,0,0-1.91.79l-13.83,13.33a2.82,2.82,0,0,0-.86,2.07" transform="translate(-10.67 -131.09)" style="fill:none;stroke:#1d1d1b;stroke-linejoin:round;stroke-width:3px"/>
        <path d="M270.64,213.54l-6-6a2.25,2.25,0,0,1,.06-3.24l17-15.77a2.26,2.26,0,0,1,1.52-.6H298.8a2.25,2.25,0,0,1,1.57.65l5.54,5.44a2.26,2.26,0,0,1,.67,1.6V208.6a2.24,2.24,0,0,0,.65,1.59l2.38,2.37a2.2,2.2,0,0,0,1.58.66h6.19a2.25,2.25,0,0,0,1.54-.61l16.91-16a2.22,2.22,0,0,1,1.52-.61l25.78-.23a2.17,2.17,0,0,0,1.49-.59l10.78-9.85a2.24,2.24,0,0,1,1.51-.59l59.55-.19a2.24,2.24,0,0,1,1.48.55l10.51,9.13a2.3,2.3,0,0,0,1.47.55l62,.07a2.24,2.24,0,0,1,1.58,3.83L497,215.26a2.25,2.25,0,0,1-1.59.66H454.91a2.25,2.25,0,0,0-1.52.59l-6.75,6.22a2.27,2.27,0,0,0-.72,1.59l-.06,2a2.2,2.2,0,0,0,.65,1.65l7.67,7.74a2.28,2.28,0,0,1,.65,1.58v22.17a2.27,2.27,0,0,1-.57,1.49l-10.8,12.09a2.27,2.27,0,0,0-.57,1.49v12.09a2.24,2.24,0,0,1-2.24,2.24H439.1a2.46,2.46,0,0,1-.72-.11l-11-3.67a2.24,2.24,0,0,0-2.09.36l-15.18,11.83a2.24,2.24,0,0,1-3.62-1.79l.08-10.56a2.26,2.26,0,0,0-.6-1.55l-6.15-6.64a2.24,2.24,0,0,0-3.22-.08l-12.07,11.9a2.29,2.29,0,0,0-.67,1.62l.07,9.41a2.25,2.25,0,0,1-3.9,1.54l-12.31-13.39a2.25,2.25,0,0,1-.59-1.54l.18-19.18a2.21,2.21,0,0,0-.66-1.61l-7.32-7.25a2.23,2.23,0,0,0-1.58-.65H332.64a2.22,2.22,0,0,0-1.53.61l-2.59,2.41a2.24,2.24,0,0,0-.13,3.14l4.66,5.19a2.23,2.23,0,0,0,3.19.14l2.78-2.58a2.24,2.24,0,0,1,3.14.09l3.78,3.9a2.24,2.24,0,0,1-.06,3.17L334,285.08a2.25,2.25,0,0,1-3.15,0L319.71,273.9a2.23,2.23,0,0,0-3.14,0l-2.29,2.21a2.24,2.24,0,0,0,0,3.19l18.32,18.61a2.24,2.24,0,0,0,1.6.67h.37a2.24,2.24,0,0,1,1.58,3.83l-5.51,5.49a2.23,2.23,0,0,0-.66,1.62l.22,18.45a2.27,2.27,0,0,1-.66,1.61l-14.06,14.1a2.24,2.24,0,0,0-.66,1.58v10.6a2.23,2.23,0,0,1-.65,1.58l-17.37,17.48a2.27,2.27,0,0,1-1.57.67l-8.62.06A2.25,2.25,0,0,1,285,375l-14.16-13a2.23,2.23,0,0,1-.73-1.66l.12-45.52a2.27,2.27,0,0,0-.63-1.56l-4.21-4.36a2.25,2.25,0,0,0-1.64-.69l-18,.18a2.22,2.22,0,0,1-1.6-.65l-14.66-14.51a2.27,2.27,0,0,1-.67-1.57l-.21-18a2.19,2.19,0,0,1,.67-1.62l14.09-13.88a2.22,2.22,0,0,1,1.56-.64l28.33-.12a2.27,2.27,0,0,1,1.39.48l8.21,6.38a2.17,2.17,0,0,0,1.39.47l22.44-.11a2.26,2.26,0,0,0,1.58-.65l4.57-4.57a2.25,2.25,0,0,0,.65-1.57l.05-4.54a2.24,2.24,0,0,0-2.24-2.27h-.8a2.23,2.23,0,0,1-1.5-.57l-2.69-2.4a2.24,2.24,0,0,1-.75-1.6h0a2.23,2.23,0,0,1,2.21-2.32l12.94-.18A2.24,2.24,0,0,0,323,241.7v-6.56a2.26,2.26,0,0,0-.62-1.56l-3.54-3.68a2.23,2.23,0,0,0-1.64-.69l-10.93.1a2.29,2.29,0,0,0-1.29.43l-5.75,4.15a2.23,2.23,0,0,0-.93,1.89l0,1.8a2.28,2.28,0,0,0,.58,1.43l.24.27a2.24,2.24,0,0,1-.11,3.13l-1.91,1.81a2.25,2.25,0,0,1-3.14,0l-9.25-9.26a2.24,2.24,0,0,0-3.15,0l-1.31,1.27a2.24,2.24,0,0,0-.06,3.15L290.31,250a2.24,2.24,0,0,1-.18,3.26l-2.34,2a2.24,2.24,0,0,1-3-.1L271.28,242a2.24,2.24,0,0,0-1.6-.63l-5.37.09a2.24,2.24,0,0,0-1.4.52l-8.78,7.31a2.21,2.21,0,0,1-1.39.52l-8.37.17a2.25,2.25,0,0,1-1.37-.43l-2.6-1.9a2.26,2.26,0,0,1-.92-1.79l-.09-8.73a2.26,2.26,0,0,1,2.26-2.27l10.07.06a2.24,2.24,0,0,0,1.55-.6l11.78-11a2.23,2.23,0,0,1,1.45-.6l14.57-.53a2.3,2.3,0,0,0,1.51-.66l13-13a2.24,2.24,0,0,0-.05-3.22l-4.8-4.51a2.24,2.24,0,0,0-3.06,0l-14,12.87a2.24,2.24,0,0,1-3.1-.05" transform="translate(-10.67 -131.09)" style="fill:none;stroke:#1d1d1b;stroke-linejoin:round;stroke-width:3px"/>
    </g>
    <g id="Orange">
        <rect x="5" y="5" width="530.36" height="300.69" rx="36.31" style="fill:none;stroke:var(--Color_Main, orange);stroke-miterlimit:10;stroke-width:10px"/>
    </g>
</svg>
