<svg id="what-s-the-aim" xmlns="http://www.w3.org/2000/svg" viewBox="0 0 423.29 379.18">
    <g id="Ingranaggi">
        <g id="Grande">
            <path d="M281.77,126.07c-4.63,3.71-9.27,7.78-15.07,9.33l-5.61-12.72a22.4,22.4,0,0,1,8.17-3.22,64.1,64.1,0,0,1,8.78-1.67Z" transform="translate(-27.17 -11.94)" style="fill:var(--Color_Main, orange)"/>
            <path d="M281.14,157.36c-5.93-.15-12.13,0-17.54-2.54l3.82-13.28a23,23,0,0,1,8.33,2.77,63.91,63.91,0,0,1,7.87,4.42l-2.48,8.63Z" transform="translate(-27.17 -11.94)" style="fill:var(--Color_Main, orange)"/>
            <path d="M260.63,181c-4.46-3.87-9.28-7.68-11.84-13.22l11.5-7.71a23.27,23.27,0,0,1,4.59,7.48,63.25,63.25,0,0,1,3.18,8.56l-7.42,5Z" transform="translate(-27.17 -11.94)" style="fill:var(--Color_Main, orange)"/>
            <path d="M229.73,185.84c-.84-5.87-2.12-11.93-.56-17.73l13.74,1.49a23.11,23.11,0,0,1-1.31,8.68,66.19,66.19,0,0,1-3,8.52l-8.91-1Z" transform="translate(-27.17 -11.94)" style="fill:var(--Color_Main, orange)"/>
            <path d="M202.9,169.74c3.1-5.09,6.07-10.5,11-14l9.58,9.9a22.94,22.94,0,0,1-6.58,5.83,63.29,63.29,0,0,1-7.77,4.61l-6.22-6.46Z" transform="translate(-27.17 -11.94)" style="fill:var(--Color_Main, orange)"/>
            <path d="M192.73,140.16c5.63-1.91,11.4-4.14,17.36-3.64l.94,13.82a23.16,23.16,0,0,1-8.78.22,67,67,0,0,1-8.91-1.47Z" transform="translate(-27.17 -11.94)" style="fill:var(--Color_Main, orange)"/>
            <path d="M203.94,110.94c5.54,2.16,11.39,4.16,15.63,8.4l-8.16,11.16a22.86,22.86,0,0,1-6.87-5.49,62.66,62.66,0,0,1-5.87-6.84l5.27-7.25Z" transform="translate(-27.17 -11.94)" style="fill:var(--Color_Main, orange)"/>
            <path d="M231.3,95.8c2.86,5.2,6,10.41,6.59,16.45l-13.43,3.33a23.19,23.19,0,0,1-1.75-8.61,64.37,64.37,0,0,1-.09-9l8.7-2.15Z" transform="translate(-27.17 -11.94)" style="fill:var(--Color_Main, orange)"/>
            <path d="M262,101.77c-1.17,5.82-2.12,11.93-5.55,16.84L244,112.52a23.24,23.24,0,0,1,4.21-7.72,65.28,65.28,0,0,1,5.76-7l8.05,3.94Z" transform="translate(-27.17 -11.94)" style="fill:var(--Color_Main, orange)"/>
            <circle cx="211.25" cy="129.15" r="28.13" style="fill:none;stroke:var(--Color_Main, orange);stroke-linecap:round;stroke-miterlimit:10;stroke-width:13px"/>
        </g>
        <g id="Piccolo">
            <circle cx="155.73" cy="182.71" r="16.89" style="fill:none;stroke:var(--Color_Main, orange);stroke-miterlimit:10;stroke-width:10px"/>
            <path d="M196.12,169.86a32.08,32.08,0,0,1-2,10.93L183.39,177a32.31,32.31,0,0,1,5.36-9.78l7.45,2.63Z" transform="translate(-27.17 -11.94)" style="fill:var(--Color_Main, orange)"/>
            <path d="M210.8,189.76A32.43,32.43,0,0,1,201,195l-3.79-10.73a32.2,32.2,0,0,1,11-2l2.6,7.49Z" transform="translate(-27.17 -11.94)" style="fill:var(--Color_Main, orange)"/>
            <path d="M204.34,213.6a32.61,32.61,0,0,1-10.19-4.44l6.09-9.6a32.77,32.77,0,0,1,8.35,7.35Z" transform="translate(-27.17 -11.94)" style="fill:var(--Color_Main, orange)"/>
            <path d="M181.67,223.39a32,32,0,0,1-2.86-10.73l11.27-1.21a31.76,31.76,0,0,1-.66,11.12l-7.86.83Z" transform="translate(-27.17 -11.94)" style="fill:var(--Color_Main, orange)"/>
            <path d="M159.88,211.75a32.11,32.11,0,0,1,6.63-8.93l7.92,8.08a32.42,32.42,0,0,1-9,6.5l-5.57-5.65Z" transform="translate(-27.17 -11.94)" style="fill:var(--Color_Main, orange)"/>
            <path d="M155.43,187.46a31.53,31.53,0,0,1,11.21-.39l-1.38,11.26a31.81,31.81,0,0,1-10.68-3l.95-7.84Z" transform="translate(-27.17 -11.94)" style="fill:var(--Color_Main, orange)"/>
            <path d="M171.69,168.83a32.75,32.75,0,0,1,7.21,8.48l-9.68,5.89A32.06,32.06,0,0,1,165,173l6.75-4.17Z" transform="translate(-27.17 -11.94)" style="fill:var(--Color_Main, orange)"/>
        </g>
    </g>
    <g id="Nuvole">
        <path d="M138.61,114.36a1.61,1.61,0,0,1,.3-1.34C146.67,102.74,151,88.71,151,74.87a60.92,60.92,0,1,0-60.93,60.92c9.12,0,19.11-1.47,27-5a1.61,1.61,0,0,1,1.29,0l23.29,9.4a1.66,1.66,0,0,0,2.24-1.89Z" transform="translate(-27.17 -11.94)" style="fill:none;stroke:#000;stroke-miterlimit:10;stroke-width:4px"/>
        <path d="M171.36,265.91a1.67,1.67,0,0,1-1.18.72c-12.79,1.52-25.92,8.1-35.91,17.69a60.93,60.93,0,1,0,86.15,1.74c-6.32-6.58-14.3-12.76-22.29-15.95a1.62,1.62,0,0,1-.92-.91l-9.36-23.31a1.65,1.65,0,0,0-2.9-.3Z" transform="translate(-27.17 -11.94)" style="fill:none;stroke:#000;stroke-miterlimit:10;stroke-width:4px"/>
        <path d="M325.07,189.19a1.63,1.63,0,0,1,.58,1.25c0,12.88,5,26.7,13.35,37.73a60.92,60.92,0,1,0,11.84-85.34c-7.27,5.5-14.35,12.7-18.46,20.27a1.63,1.63,0,0,1-1,.8l-24.25,6.56a1.65,1.65,0,0,0-.64,2.85Z" transform="translate(-27.17 -11.94)" style="fill:none;stroke:#000;stroke-miterlimit:10;stroke-width:4px"/>
        <text transform="translate(22.4 60.73)" style="font-size:62px;font-family:MyriadPro-Regular, Myriad Pro;letter-spacing:0.028005292338709676em">.....</text>
        <text transform="translate(109.15 309.38)" style="font-size:62px;font-family:MyriadPro-Regular, Myriad Pro;letter-spacing:0.028005292338709676em">.....</text>
        <text transform="translate(323.35 177.41)" style="font-size:62px;font-family:MyriadPro-Regular, Myriad Pro;letter-spacing:0.028005292338709676em">.....</text>
    </g>
</svg>
