<svg id="Chi_sono" xmlns="http://www.w3.org/2000/svg"  viewBox="0 0 492.81 540.84">
    <path d="M220.1,552.47c-9.74,0-15.06-8.22-16.77-11.45a5,5,0,0,1-.51-1.4L175.18,405.05l-.08-.29a12.06,12.06,0,0,1-.12-4.32,4.84,4.84,0,0,1,1.4-2.57c7-7,45.57-43.8,71.14-68.11l2.07-2a5.17,5.17,0,0,0,1-6.08L185.13,192.43a4.43,4.43,0,0,1-.28-.68c-.62-1.85-2.42-8-.92-13.28a22.28,22.28,0,0,1,4.88-8.82,5,5,0,0,1,1.19-1L229.09,146a5.24,5.24,0,0,1,1.37-.55l94.35-23a4.64,4.64,0,0,1,.92-.14c.33,0,.78,0,1.37,0,1.37,0,3,.09,4.95.25a15.82,15.82,0,0,1,7.14,2.64l.28.21.27.17,89.14,57.65a4.21,4.21,0,0,1,.48.35c2.58,2.15,7.17,7.49,1.73,15.33-1.72,2.48-3.64,3.58-6.21,3.58a15.44,15.44,0,0,1-6.33-1.65,5.14,5.14,0,0,1-.51-.29l-84.52-55.2a5.16,5.16,0,0,0-4.5-.56l-70.65,24.3a5.16,5.16,0,0,0-2.72,7.58l74,119.84c2.76,5.32,4.38,11.7,2.54,21.56a34.78,34.78,0,0,1-11.56,19.78L213.41,409.26a5.18,5.18,0,0,0-2.19,5.33l24.32,119.17c.39,2.46,1.78,15.31-10.52,18.12A21.57,21.57,0,0,1,220.1,552.47Z" transform="translate(-33.16 -23.38)" style="fill:none;stroke:#000;stroke-miterlimit:10;stroke-width:3px"/>
    <g id="Orange">
        <path d="M269.16,181.42s66.9,108.64,67,108.89c3,5,7.63,14.41,4.86,29a44.46,44.46,0,0,1-15.32,25.87L223.4,413.42a5.09,5.09,0,0,0-2.16,5.26l23.14,113.41s4.16,23.64-17.35,28.57c-21.28,4.88-30.83-13.52-32.44-17a5.16,5.16,0,0,1-.36-1.09l-27.8-135.39s-2.3-8.34,2.21-14.21c1.47-1.93,56.87-54.66,69.94-67.1a5.1,5.1,0,0,0,1-6L176.84,196a4.23,4.23,0,0,1-.23-.53c-.66-1.75-3.78-10.87-1.33-19.44a30.11,30.11,0,0,1,8.41-13.93,4.81,4.81,0,0,1,.83-.59l41.18-23.92a5.15,5.15,0,0,1,1.36-.54l95.62-23.32s1.85-.85,10.13-.15a24.77,24.77,0,0,1,11.68,4.33l.22.15,89.44,57.85a3.69,3.69,0,0,1,.4.29c1.83,1.46,14.57,12.51,3.93,27.83-9.5,13.68-24.91,4.34-24.91,4.34l-81.31-53.11a5.15,5.15,0,0,0-4.45-.55l-56,19.25A5.1,5.1,0,0,0,269.16,181.42Z" transform="translate(-33.16 -23.38)" style="fill:none;stroke:var(--Color_Main, orange);stroke-miterlimit:10;stroke-width:5.5px"/>
        <path d="M369.54,353.86,395.3,390.4a1.33,1.33,0,0,0,1.11.57L501,389.62h.17c1.47.18,21.22,3,22,24.5C524,435,508.65,441,506.71,441.64a1.76,1.76,0,0,1-.4.07l-111.46,2.2s-12.58-.2-16.51-1.53c-16.87-5.69-23.66-16-23.66-16l-26.75-36.32a1.34,1.34,0,0,1,.33-1.9c5.18-3.5,26.25-18,32.21-25.27,2.3-2.81,5.31-6.88,6.9-9.05A1.34,1.34,0,0,1,369.54,353.86Z" transform="translate(-33.16 -23.38)" style="fill:none;stroke:var(--Color_Main, orange);stroke-miterlimit:10;stroke-width:5.5px"/>
        <circle cx="112.95" cy="54.54" r="51.79" style="fill:none;stroke:var(--Color_Main, orange);stroke-miterlimit:10;stroke-width:5.5px"/>
        <path d="M155.31,239.71l21.16,38.89a1.15,1.15,0,0,1,.06,1c-.88,2.31-4.63,12-6.32,15.46-7.77,15.86-9.19,25.33-26.28,26.3-19.07,1.08-88,1.88-90.58,1.91H53.2c-1.25-.16-17-2.61-17.29-19.9-.25-18,19-19.28,19-19.28l79.3-1.89a1.18,1.18,0,0,0,1-.7l18-41.65A1.16,1.16,0,0,1,155.31,239.71Z" transform="translate(-33.16 -23.38)" style="fill:none;stroke:var(--Color_Main, orange);stroke-miterlimit:10;stroke-width:5.5px"/>
    </g>
</svg>
